<svg width="288" height="512" viewBox="0 0 288 512" fill="none" xmlns="http://www.w3.org/2000/svg">
<path d="M112 316.94V473.63L134.02 506.65C138.77 513.77 149.24 513.77 153.99 506.65L176 473.63V316.94C165.61 318.86 154.94 320 144 320C133.06 320 122.39 318.86 112 316.94ZM144 0C64.47 0 0 64.47 0 144C0 223.53 64.47 288 144 288C223.53 288 288 223.53 288 144C288 64.47 223.53 0 144 0ZM144 76C106.5 76 76 106.5 76 144C76 150.62 70.62 156 64 156C57.38 156 52 150.62 52 144C52 93.27 93.28 52 144 52C150.62 52 156 57.38 156 64C156 70.62 150.62 76 144 76Z" fill="#3F3D57"/>
</svg>
